<svg version="1.1" style="font-family: Roboto; font-size: 12px;" xmlns="http://www.w3.org/2000/svg" width="650" height="400" viewBox="0 0 650 400" aria-hidden="false" aria-label="Interactive chart"><defs aria-hidden="true"><clipPath ><rect x="0" y="0" width="514" height="280" fill="none"></rect></clipPath><clipPath ><rect x="0" y="0" width="514" height="280" fill="none"></rect></clipPath><clipPath ><rect x="0" y="0" width="514" height="280" fill="none"></rect></clipPath></defs><rect fill="#ffffff" x="0" y="0" width="650" height="400" rx="0" ry="0" aria-hidden="true"></rect><rect fill="none" x="68" y="46" width="514" height="280" aria-hidden="true"></rect><g data-z-index="0" aria-hidden="true"></g><rect fill="none" data-z-index="1" x="68" y="46" width="514" height="280" aria-hidden="true"></rect><g data-z-index="1" aria-hidden="true"><path fill="none" stroke-dasharray="none" data-z-index="1" d="M 153.5 46 L 153.5 326" opacity="1"></path><path fill="none" stroke-dasharray="none" data-z-index="1" d="M 238.5 46 L 238.5 326" opacity="1"></path><path fill="none" stroke-dasharray="none" data-z-index="1" d="M 324.5 46 L 324.5 326" opacity="1"></path><path fill="none" stroke-dasharray="none" data-z-index="1" d="M 410.5 46 L 410.5 326" opacity="1"></path><path fill="none" stroke-dasharray="none" data-z-index="1" d="M 495.5 46 L 495.5 326" opacity="1"></path><path fill="none" stroke-dasharray="none" data-z-index="1" d="M 581.5 46 L 581.5 326" opacity="1"></path><path fill="none" stroke-dasharray="none" data-z-index="1" d="M 67.5 46 L 67.5 326" opacity="1"></path></g><g data-z-index="1" aria-hidden="true"><path fill="none" stroke="#e6e6e6" stroke-width="1" stroke-dasharray="none" data-z-index="1" d="M 68 326.5 L 582 326.5" opacity="1"></path><path fill="none" stroke="#e6e6e6" stroke-width="1" stroke-dasharray="none" data-z-index="1" d="M 68 256.5 L 582 256.5" opacity="1"></path><path fill="none" stroke="#e6e6e6" stroke-width="1" stroke-dasharray="none" data-z-index="1" d="M 68 186.5 L 582 186.5" opacity="1"></path><path fill="none" stroke="#e6e6e6" stroke-width="1" stroke-dasharray="none" data-z-index="1" d="M 68 116.5 L 582 116.5" opacity="1"></path><path fill="none" stroke="#e6e6e6" stroke-width="1" stroke-dasharray="none" data-z-index="1" d="M 68 45.5 L 582 45.5" opacity="1"></path></g><g data-z-index="1" aria-hidden="true"><path fill="none" stroke="#e6e6e6" stroke-width="1" stroke-dasharray="none" data-z-index="1" d="M 68 326.5 L 582 326.5" opacity="1"></path><path fill="none" stroke="#e6e6e6" stroke-width="1" stroke-dasharray="none" data-z-index="1" d="M 68 45.5 L 582 45.5" opacity="1"></path><path fill="none" stroke="#e6e6e6" stroke-width="1" stroke-dasharray="none" data-z-index="1" d="M 68 256.5 L 582 256.5" opacity="1"></path><path fill="none" stroke="#e6e6e6" stroke-width="1" stroke-dasharray="none" data-z-index="1" d="M 68 186.5 L 582 186.5" opacity="1"></path><path fill="none" stroke="#e6e6e6" stroke-width="1" stroke-dasharray="none" data-z-index="1" d="M 68 116.5 L 582 116.5" opacity="1"></path></g><g data-z-index="2" aria-hidden="true"><path fill="none" stroke="#ccd6eb" stroke-width="1" data-z-index="7" d="M 68 326.5 L 582 326.5"></path></g><g data-z-index="2" aria-hidden="true"><text font-family='Roboto-Regular,Roboto' x="24.46875" data-z-index="7" text-anchor="middle" transform="translate(0,0) rotate(270 24.46875 186)" y="186" style="color: rgb(102, 102, 102); fill: rgb(102, 102, 102);">Value</text><path fill="none" data-z-index="7" d="M 68 46 L 68 326"></path></g><g data-z-index="2" aria-hidden="true"><text font-family='Roboto-Regular,Roboto' x="625.53125" data-z-index="7" text-anchor="middle" transform="translate(0,0) rotate(90 625.53125 186)" y="186" style="color: rgb(102, 102, 102); fill: rgb(102, 102, 102);">Value 2</text><path fill="none" data-z-index="7" d="M 582 46 L 582 326"></path></g><g data-z-index="3" aria-hidden="false"><g data-z-index="0.1" opacity="1" transform="translate(68,46) scale(1 1)" clip-path="url(#highcharts-tq79vuz-108-)" aria-hidden="false" role="region" tabindex="-1" aria-label="Item 1, series 1 of 3. Bar series with 6 bars. Y axis, Value 2." style="cursor: pointer; outline: none;"><rect x="22" y="147" width="16" height="134" fill="#303aa6" opacity="1" tabindex="-1" role="img" aria-label="Category 1, 48. Item 1." style="outline: none;"></rect><rect x="108" y="15" width="16" height="266" fill="#303aa6" opacity="1" tabindex="-1" role="img" aria-label="Category 2, 95. Item 1." style="outline: none;"></rect><rect x="194" y="161" width="16" height="120" fill="#303aa6" opacity="1" tabindex="-1" role="img" aria-label="Category 3, 43. Item 1." style="outline: none;"></rect><rect x="279" y="175" width="16" height="106" fill="#303aa6" opacity="1" tabindex="-1" role="img" aria-label="Category 4, 38. Item 1." style="outline: none;"></rect><rect x="365" y="194" width="16" height="87" fill="#303aa6" opacity="1" tabindex="-1" role="img" aria-label="Category 5, 31. Item 1." style="outline: none;"></rect><rect x="451" y="105" width="16" height="176" fill="#303aa6" opacity="1" tabindex="-1" role="img" aria-label="Category 6, 63. Item 1." style="outline: none;"></rect></g><g data-z-index="0.1" opacity="1" transform="translate(68,46) scale(1 1)" clip-path="none" aria-hidden="true"></g><g data-z-index="0.1" opacity="1" transform="translate(68,46) scale(1 1)" clip-path="url(#highcharts-tq79vuz-108-)" aria-hidden="false" role="region" tabindex="-1" aria-label="Item 2, series 2 of 3. Bar series with 6 bars. Y axis, Value 2." style="cursor: pointer; outline: none;"><rect x="48" y="54" width="16" height="227" fill="#181d53" opacity="1" tabindex="-1" role="img" aria-label="Category 1, 81. Item 2." style="outline: none;"></rect><rect x="134" y="228" width="16" height="53" fill="#181d53" opacity="1" tabindex="-1" role="img" aria-label="Category 2, 19. Item 2." style="outline: none;"></rect><rect x="219" y="247" width="16" height="34" fill="#181d53" opacity="1" tabindex="-1" role="img" aria-label="Category 3, 12. Item 2." style="outline: none;"></rect><rect x="305" y="253" width="16" height="28" fill="#181d53" opacity="1" tabindex="-1" role="img" aria-label="Category 4, 10. Item 2." style="outline: none;"></rect><rect x="391" y="149" width="16" height="132" fill="#181d53" opacity="1" tabindex="-1" role="img" aria-label="Category 5, 47. Item 2." style="outline: none;"></rect><rect x="476" y="149" width="16" height="132" fill="rgb(24,29,83)" opacity="1" tabindex="-1" role="img" aria-label="Category 6, 47. Item 2." style="outline: none;"></rect></g><g data-z-index="0.1" opacity="1" transform="translate(68,46) scale(1 1)" clip-path="none" aria-hidden="true"></g><g data-z-index="0.1" opacity="1" transform="translate(68,46) scale(1 1)" clip-path="url(#highcharts-tq79vuz-124-)" aria-hidden="true"><path fill="none" d="M 42.833333333333 210 C 42.833333333333 210 94.2333333333332 79.33333333332999 128.5 79.33333333332999 C 162.766666666664 79.33333333332999 179.899999999996 242.666666666667 214.16666666666 242.666666666667 C 248.43333333332802 242.666666666667 265.566666666662 53.66666666667001 299.83333333333 53.66666666667001 C 334.099999999998 53.66666666667001 351.23333333333204 57.39999999999968 385.5 63 C 419.766666666664 68.59999999999968 471.16666666666 81.66666666667001 471.16666666666 81.66666666667001" data-z-index="1" stroke="#f25f3a" stroke-width="2" stroke-linejoin="round" stroke-linecap="round"></path><path fill="none" d="M 42.833333333333 210 C 42.833333333333 210 94.2333333333332 79.33333333332999 128.5 79.33333333332999 C 162.766666666664 79.33333333332999 179.899999999996 242.666666666667 214.16666666666 242.666666666667 C 248.43333333332802 242.666666666667 265.566666666662 53.66666666667001 299.83333333333 53.66666666667001 C 334.099999999998 53.66666666667001 351.23333333333204 57.39999999999968 385.5 63 C 419.766666666664 68.59999999999968 471.16666666666 81.66666666667001 471.16666666666 81.66666666667001" data-z-index="2" stroke-linecap="round" stroke-linejoin="round" stroke="rgba(192,192,192,0.0001)" stroke-width="22" style="cursor: pointer;"></path></g><g data-z-index="0.1" opacity="1" transform="translate(68,46) scale(1 1)" clip-path="none" aria-hidden="false" role="region" tabindex="-1" aria-label="Line 1, series 3 of 3. Line with 6 data points. Y axis, Value." style="cursor: pointer; outline: none;"><path fill="#f25f3a" d="M 471 81.66666666667001 A 0 0 0 1 1 471 81.66666666667001 Z" data-z-index="-1" fill-opacity="0.25" visibility="hidden"></path><path fill="#f25f3a" d="M 42 214 A 4 4 0 1 1 42.00399999933334 213.99999800000018 Z" opacity="1" tabindex="-1" role="img" aria-label="Category 1, 30. Line 1." style="outline: none;"></path><path fill="#f25f3a" d="M 128 83.33333333332999 A 4 4 0 1 1 128.00399999933333 83.33333133333015 Z" opacity="1" tabindex="-1" role="img" aria-label="Category 2, 86. Line 1." style="outline: none;"></path><path fill="#f25f3a" d="M 214 246.666666666667 A 4 4 0 1 1 214.00399999933333 246.66666466666717 Z" opacity="1" tabindex="-1" role="img" aria-label="Category 3, 16. Line 1." style="outline: none;"></path><path fill="#f25f3a" d="M 299 57.66666666667001 A 4 4 0 1 1 299.00399999933336 57.66666466667018 Z" opacity="1" tabindex="-1" role="img" aria-label="Category 4, 97. Line 1." style="outline: none;"></path><path fill="#f25f3a" d="M 385 67 A 4 4 0 1 1 385.00399999933336 66.99999800000016 Z" opacity="1" tabindex="-1" role="img" aria-label="Category 5, 93. Line 1." style="outline: none;"></path><path fill="#f25f3a" d="M 471 85.66666666667001 A 4 4 0 1 1 471.00399999933336 85.66666466667017 Z" opacity="1" tabindex="-1" role="img" aria-label="Category 6, 85. Line 1." stroke-width="0.0001792479175468653" style="outline: none;"></path></g></g><g data-z-index="3" aria-hidden="true"><g stroke-linecap="round" transform="translate(616,10)" style="cursor: pointer;"><title>Chart context menu</title><rect fill="#ffffff" x="0.5" y="0.5" width="24" height="22" rx="2" ry="2" stroke="none" stroke-width="1"></rect><path fill="#666666" d="M 6 6.5 L 20 6.5 M 6 11.5 L 20 11.5 M 6 16.5 L 20 16.5" data-z-index="1" stroke="#666666" stroke-width="3"></path><text font-family='Roboto-Regular,Roboto' x="0" data-z-index="1" y="15.5" style="color: rgb(51, 51, 51); font-weight: normal; fill: rgb(51, 51, 51);"></text></g></g><text font-family='Roboto-Regular,Roboto' x="325" text-anchor="middle" data-z-index="4" y="24" aria-hidden="true" style="color: rgb(51, 51, 51); font-size: 18px; fill: rgb(51, 51, 51);">Manage</text><text font-family='Roboto-Regular,Roboto' x="325" text-anchor="middle" data-z-index="4" y="45" aria-hidden="true" style="color: rgb(102, 102, 102); fill: rgb(102, 102, 102);"></text><text font-family='Roboto-Regular,Roboto' x="10" text-anchor="start" data-z-index="4" y="397" aria-hidden="true" style="color: rgb(102, 102, 102); fill: rgb(102, 102, 102);"></text><g data-z-index="7" aria-hidden="true" transform="translate(207,359)"><rect fill="none" rx="0" ry="0" x="0" y="0" width="236" height="26"></rect><g data-z-index="1"><g><g data-z-index="1" transform="translate(8,3)"><text font-family='Roboto-Regular,Roboto' x="21" text-anchor="start" data-z-index="2" y="15" style="color: rgb(51, 51, 51); cursor: pointer; font-size: 12px; font-weight: bold; fill: rgb(51, 51, 51);">Item 1</text><rect x="2" y="4" width="12" height="12" fill="#303aa6" rx="6" ry="6" data-z-index="3"></rect></g><g data-z-index="1" transform="translate(88.78125,3)"><text font-family='Roboto-Regular,Roboto' x="21" y="15" text-anchor="start" data-z-index="2" style="color: rgb(51, 51, 51); cursor: pointer; font-size: 12px; font-weight: bold; fill: rgb(51, 51, 51);">Item 2</text><rect x="2" y="4" width="12" height="12" fill="#181d53" rx="6" ry="6" data-z-index="3"></rect></g><g data-z-index="1" transform="translate(169.5625,3)"><path fill="none" d="M 0 11 L 16 11" stroke="#f25f3a" stroke-width="2"></path><path fill="#f25f3a" d="M 8 15 A 4 4 0 1 1 8.003999999333336 14.999998000000167 Z" opacity="1"></path><text font-family='Roboto-Regular,Roboto' x="21" y="15" text-anchor="start" data-z-index="2" style="color: rgb(51, 51, 51); cursor: pointer; font-size: 12px; font-weight: bold; fill: rgb(51, 51, 51);">Line 1</text></g></g></g></g><g data-z-index="7" aria-hidden="true"><text font-family='Roboto-Regular,Roboto' x="110.83333333333667" text-anchor="middle" transform="translate(0,0)" y="345" opacity="1" style="color: rgb(102, 102, 102); cursor: default; font-size: 11px; fill: rgb(102, 102, 102);">Category 1</text><text font-family='Roboto-Regular,Roboto' x="196.49999999999665" text-anchor="middle" transform="translate(0,0)" y="345" opacity="1" style="color: rgb(102, 102, 102); cursor: default; font-size: 11px; fill: rgb(102, 102, 102);">Category 2</text><text font-family='Roboto-Regular,Roboto' x="282.1666666666667" text-anchor="middle" transform="translate(0,0)" y="345" opacity="1" style="color: rgb(102, 102, 102); cursor: default; font-size: 11px; fill: rgb(102, 102, 102);">Category 3</text><text font-family='Roboto-Regular,Roboto' x="367.83333333332666" text-anchor="middle" transform="translate(0,0)" y="345" opacity="1" style="color: rgb(102, 102, 102); cursor: default; font-size: 11px; fill: rgb(102, 102, 102);">Category 4</text><text font-family='Roboto-Regular,Roboto' x="453.4999999999967" text-anchor="middle" transform="translate(0,0)" y="345" opacity="1" style="color: rgb(102, 102, 102); cursor: default; font-size: 11px; fill: rgb(102, 102, 102);">Category 5</text><text font-family='Roboto-Regular,Roboto' x="539.1666666666666" text-anchor="middle" transform="translate(0,0)" y="345" opacity="1" style="color: rgb(102, 102, 102); cursor: default; font-size: 11px; fill: rgb(102, 102, 102);">Category 6</text></g><g data-z-index="7" aria-hidden="true"><text font-family='Roboto-Regular,Roboto' x="53" text-anchor="end" transform="translate(0,0)" y="331" opacity="1" style="color: rgb(102, 102, 102); cursor: default; font-size: 11px; fill: rgb(102, 102, 102);">0</text><text font-family='Roboto-Regular,Roboto' x="53" text-anchor="end" transform="translate(0,0)" y="261" opacity="1" style="color: rgb(102, 102, 102); cursor: default; font-size: 11px; fill: rgb(102, 102, 102);">30</text><text font-family='Roboto-Regular,Roboto' x="53" text-anchor="end" transform="translate(0,0)" y="191" opacity="1" style="color: rgb(102, 102, 102); cursor: default; font-size: 11px; fill: rgb(102, 102, 102);">60</text><text font-family='Roboto-Regular,Roboto' x="53" text-anchor="end" transform="translate(0,0)" y="121" opacity="1" style="color: rgb(102, 102, 102); cursor: default; font-size: 11px; fill: rgb(102, 102, 102);">90</text><text font-family='Roboto-Regular,Roboto' x="53" text-anchor="end" transform="translate(0,0)" y="51" opacity="1" style="color: rgb(102, 102, 102); cursor: default; font-size: 11px; fill: rgb(102, 102, 102);">120</text></g><g data-z-index="7" aria-hidden="true"><text font-family='Roboto-Regular,Roboto' x="597" text-anchor="start" transform="translate(0,0)" y="331" opacity="1" style="color: rgb(102, 102, 102); cursor: default; font-size: 11px; fill: rgb(102, 102, 102);">0</text><text font-family='Roboto-Regular,Roboto' x="597" text-anchor="start" transform="translate(0,0)" y="51" opacity="1" style="color: rgb(102, 102, 102); cursor: default; font-size: 11px; fill: rgb(102, 102, 102);">100</text><text font-family='Roboto-Regular,Roboto' x="597" text-anchor="start" transform="translate(0,0)" y="261" opacity="1" style="color: rgb(102, 102, 102); cursor: default; font-size: 11px; fill: rgb(102, 102, 102);">25</text><text font-family='Roboto-Regular,Roboto' x="597" text-anchor="start" transform="translate(0,0)" y="191" opacity="1" style="color: rgb(102, 102, 102); cursor: default; font-size: 11px; fill: rgb(102, 102, 102);">50</text><text font-family='Roboto-Regular,Roboto' x="597" text-anchor="start" transform="translate(0,0)" y="121" opacity="1" style="color: rgb(102, 102, 102); cursor: default; font-size: 11px; fill: rgb(102, 102, 102);">75</text></g></svg>